<?xml version="1.0" encoding="UTF-8"?>
<svg width="290px" height="193px" viewBox="0 0 290 193" version="1.1" xmlns="http://www.w3.org/2000/svg" xmlns:xlink="http://www.w3.org/1999/xlink">
    <title>svg编组 10备份 7</title>
    <defs>
        <rect id="path-1" x="0" y="0" width="290" height="192"></rect>
    </defs>
    <g id="页面-1" stroke="none" stroke-width="1" fill="none" fill-rule="evenodd">
        <g id="截屏2021-10-22-10.51.56" transform="translate(0.000000, 1.000000)">
            <mask id="mask-2" fill="white">
                <use xlink:href="#path-1"></use>
            </mask>
            <g id="蒙版"></g>
            <g id="编组-2" mask="url(#mask-2)">
                <g transform="translate(34.000000, 31.000000)">
                    <g id="编组" transform="translate(122.989614, 63.500000) scale(-1, 1) translate(-122.989614, -63.500000) translate(23.489614, 0.000000)">
                        <g id="平板" transform="translate(99.235746, 63.701227) scale(-1, 1) rotate(270.000000) translate(-99.235746, -63.701227) translate(36.235746, -35.298773)">
                            <path d="M116.602098,4.82930698e-15 C119.766063,-2.80596643e-15 120.913393,0.329434487 122.070092,0.948043585 C123.22679,1.56665268 124.134574,2.47443639 124.753183,3.63113484 C125.371792,4.78783328 125.701227,5.93516358 125.701227,9.09912894 L125.701227,188.136617 C125.701227,191.300583 125.371792,192.447913 124.753183,193.604612 C124.134574,194.76131 123.22679,195.669094 122.070092,196.287703 C120.913393,196.906312 119.766063,197.235746 116.602098,197.235746 L9.09912894,197.235746 C5.93516358,197.235746 4.78783328,196.906312 3.63113484,196.287703 C2.47443639,195.669094 1.56665268,194.76131 0.948043585,193.604612 C0.329434487,192.447913 1.19619037e-15,191.300583 -2.05874541e-15,188.136617 L2.45077133e-16,9.09912894 C1.46645303e-16,8.29537205 0.0212595976,7.6217559 0.0631187814,7.04506666 L0.06380346,18.2020879 C0.06380346,21.3760381 0.394277572,22.5269891 1.01483887,23.6873379 C1.32741449,24.2718035 1.71358869,24.7929172 2.16820024,25.2455177 L2.16901332,189.004283 C2.16901332,191.113593 2.38863632,191.87848 2.80104241,192.649612 C3.21344849,193.420745 3.81863766,194.025934 4.58976999,194.43834 C5.32585085,194.832 6.05624114,195.050005 7.95567268,195.06901 L8.23509955,195.070369 L117.466127,195.070369 C119.575437,195.070369 120.340324,194.850746 121.111457,194.43834 C121.882589,194.025934 122.487778,193.420745 122.900184,192.649612 C123.293845,191.913531 123.511849,191.183141 123.530855,189.28371 L123.532213,189.004283 L123.532213,8.23146375 C123.532213,6.12215341 123.31259,5.35726651 122.900184,4.58613418 C122.487778,3.81500185 121.882589,3.20981269 121.111457,2.7974066 C120.340324,2.38500052 119.575437,2.16537752 117.466127,2.16537752 L103.743,2.165 L103.743,0 L116.602098,4.82930698e-15 Z" id="形状结合" fill="#505259"></path>
                            <path d="M105.709777,2.19173239 L118.389742,2.19231184 C121.150523,2.19395806 123.388832,4.43153127 123.391387,7.19231157 L123.451557,189.971974 C123.454562,192.733397 121.216723,194.97271 118.455299,194.973619 C118.4546,194.973619 118.453901,194.973619 118.453203,194.971523 L7.28916235,194.961494 C4.52965448,194.956338 2.29207411,192.720548 2.28470817,189.961045 L2.13877662,25.7785324 C3.22390746,26.3098041 4.43988089,26.5912585 7.37877971,26.5912585 L7.37877971,26.5912585 L96.5208506,26.5912585 C99.7160538,26.5912585 100.874712,26.2585715 102.04283,25.6338549 C103.210949,25.0091382 104.127695,24.092392 104.752412,22.9242734 C105.377128,21.756155 105.709815,20.597497 105.709815,17.4022939 L105.709815,17.4022939 L105.709777,2.19173239 Z" id="形状结合" fill-opacity="0.1" fill="#FFFFFF"></path>
                            <g id="编组-6" transform="translate(3.981611, 4.013518)">
                                <g id="编组-9" transform="translate(5.119876, 39.680000)">
                                    <rect id="矩形" fill-opacity="0.1" fill="#596080" x="0" y="0" width="15.369771" height="88.1664" rx="3.84"></rect>
                                    <path d="M4.45350532,90.2274886 L10.836102,90.2274886 C11.1848547,90.2274886 11.4675747,90.5102085 11.4675747,90.8589612 C11.4675747,90.8618038 11.4675555,90.8646463 11.4675171,90.8674886 C11.4627248,91.2223403 11.1736995,91.5074886 10.8188154,91.5074886 L4.43621874,91.5074886 C4.08746602,91.5074886 3.80474609,91.2247687 3.80474609,90.8760159 C3.80474609,90.8731734 3.80476528,90.8703309 3.80480367,90.8674886 C3.80959599,90.5126369 4.09862127,90.2274886 4.45350532,90.2274886 Z" id="矩形" fill-opacity="0.05" fill="#596080" transform="translate(7.636160, 90.867489) scale(1, -1) translate(-7.636160, -90.867489) "></path>
                                    <path d="M4.62344188,2.97186211 L10.6991752,2.97186211 C12.1130242,2.97186211 13.2591752,4.11801315 13.2591752,5.53186211 L13.2591752,11.5898774 C13.2591752,13.0037263 12.1130242,14.1498774 10.6991752,14.1498774 L4.62344188,14.1498774 C3.20959292,14.1498774 2.06344188,13.0037263 2.06344188,11.5898774 L2.06344188,5.53186211 C2.06344188,4.11801315 3.20959292,2.97186211 4.62344188,2.97186211 Z" id="矩形" fill-opacity="0.2" fill="#596080" transform="translate(7.661309, 8.560870) scale(-1, 1) rotate(270.000000) translate(-7.661309, -8.560870) "></path>
                                    <path d="M4.62344188,17.2464221 L10.6991752,17.2464221 C12.1130242,17.2464221 13.2591752,18.3925732 13.2591752,19.8064221 L13.2591752,25.8644374 C13.2591752,27.2782863 12.1130242,28.4244374 10.6991752,28.4244374 L4.62344188,28.4244374 C3.20959292,28.4244374 2.06344188,27.2782863 2.06344188,25.8644374 L2.06344188,19.8064221 C2.06344188,18.3925732 3.20959292,17.2464221 4.62344188,17.2464221 Z" id="矩形备份-19" fill-opacity="0.2" fill="#596080" transform="translate(7.661309, 22.835430) scale(-1, 1) rotate(270.000000) translate(-7.661309, -22.835430) "></path>
                                    <path d="M4.62344188,31.5209821 L10.6991752,31.5209821 C12.1130242,31.5209821 13.2591752,32.6671332 13.2591752,34.0809821 L13.2591752,40.1389974 C13.2591752,41.5528463 12.1130242,42.6989974 10.6991752,42.6989974 L4.62344188,42.6989974 C3.20959292,42.6989974 2.06344188,41.5528463 2.06344188,40.1389974 L2.06344188,34.0809821 C2.06344188,32.6671332 3.20959292,31.5209821 4.62344188,31.5209821 Z" id="矩形备份-20" fill-opacity="0.2" fill="#596080" transform="translate(7.661309, 37.109990) scale(-1, 1) rotate(270.000000) translate(-7.661309, -37.109990) "></path>
                                    <path d="M4.62344188,60.0701021 L10.6991752,60.0701021 C12.1130242,60.0701021 13.2591752,61.2162532 13.2591752,62.6301021 L13.2591752,68.6881174 C13.2591752,70.1019663 12.1130242,71.2481174 10.6991752,71.2481174 L4.62344188,71.2481174 C3.20959292,71.2481174 2.06344188,70.1019663 2.06344188,68.6881174 L2.06344188,62.6301021 C2.06344188,61.2162532 3.20959292,60.0701021 4.62344188,60.0701021 Z" id="矩形备份-22" fill-opacity="0.2" fill="#596080" transform="translate(7.661309, 65.659110) scale(-1, 1) rotate(270.000000) translate(-7.661309, -65.659110) "></path>
                                    <path d="M4.62344188,45.7955421 L10.6991752,45.7955421 C12.1130242,45.7955421 13.2591752,46.9416932 13.2591752,48.3555421 L13.2591752,54.4135574 C13.2591752,55.8274063 12.1130242,56.9735574 10.6991752,56.9735574 L4.62344188,56.9735574 C3.20959292,56.9735574 2.06344188,55.8274063 2.06344188,54.4135574 L2.06344188,48.3555421 C2.06344188,46.9416932 3.20959292,45.7955421 4.62344188,45.7955421 Z" id="矩形备份-21" fill-opacity="0.2" fill="#596080" transform="translate(7.661309, 51.384550) scale(-1, 1) rotate(270.000000) translate(-7.661309, -51.384550) "></path>
                                    <path d="M4.62344188,74.3446621 L10.6991752,74.3446621 C12.1130242,74.3446621 13.2591752,75.4908132 13.2591752,76.9046621 L13.2591752,82.9626774 C13.2591752,84.3765263 12.1130242,85.5226774 10.6991752,85.5226774 L4.62344188,85.5226774 C3.20959292,85.5226774 2.06344188,84.3765263 2.06344188,82.9626774 L2.06344188,76.9046621 C2.06344188,75.4908132 3.20959292,74.3446621 4.62344188,74.3446621 Z" id="矩形备份-23" fill-opacity="0.2" fill="#596080" transform="translate(7.661309, 79.933670) scale(-1, 1) rotate(270.000000) translate(-7.661309, -79.933670) "></path>
                                    <path d="M3.86631665,93.44 L11.5462985,93.44 C13.667072,93.44 15.3862985,95.1592266 15.3862985,97.28 C15.3862985,97.2827812 15.3862955,97.2855624 15.3862895,97.2883436 L15.3683254,105.555996 C15.3637245,107.673507 13.6458503,109.387652 11.5283345,109.387652 L3.84835264,109.387652 C1.7275792,109.387652 0.00835264164,107.668426 0.00835264164,105.547652 C0.00835264164,105.544871 0.00835566312,105.54209 0.00836170609,105.539309 L0.026325715,97.2716564 C0.0309266564,95.1541456 1.74880084,93.44 3.86631665,93.44 Z" id="矩形" fill-opacity="0.1" fill="#596080" transform="translate(7.697326, 101.413826) scale(1, -1) translate(-7.697326, -101.413826) "></path>
                                    <path d="M4.66095452,95.9183085 L10.7366878,95.9183085 C12.1505368,95.9183085 13.2966878,97.0644595 13.2966878,98.4783085 L13.2966878,104.536324 C13.2966878,105.950173 12.1505368,107.096324 10.7366878,107.096324 L4.66095452,107.096324 C3.24710556,107.096324 2.10095452,105.950173 2.10095452,104.536324 L2.10095452,98.4783085 C2.10095452,97.0644595 3.24710556,95.9183085 4.66095452,95.9183085 Z" id="矩形备份-23" fill-opacity="0.3" fill="#2E88E6" transform="translate(7.698821, 101.507316) scale(-1, 1) rotate(270.000000) translate(-7.698821, -101.507316) "></path>
                                    <rect id="矩形" fill-opacity="0.8" fill="#2E88E6" x="8.64289544" y="103.0656" width="5.12" height="5.12" rx="2.56"></rect>
                                </g>
                            </g>
                        </g>
                    </g>
                    <g id="Phone_Default-(1)" transform="translate(0.000000, 20.957727)">
                        <path d="M41.7038355,0 C44.8990386,0 46.0576965,0.33268699 47.225815,0.957403611 C48.3939336,1.58212023 49.3106797,2.49886648 49.9353964,3.666985 C50.560113,4.83510352 50.8928,5.9937614 50.8928,9.18896456 L50.8928,98.3310355 C50.8928,101.526239 50.560113,102.684896 49.9353964,103.853015 C49.3106797,105.021134 48.3939336,105.93788 47.225815,106.562596 C46.0576965,107.187313 44.8990386,107.52 41.7038355,107.52 L9.18896456,107.52 C5.9937614,107.52 4.83510352,107.187313 3.666985,106.562596 C2.49886648,105.93788 1.58212023,105.021134 0.957403611,103.853015 C0.33268699,102.684896 0,101.526239 0,98.3310355 L0,9.18896456 C0,5.9937614 0.33268699,4.83510352 0.957403611,3.666985 C1.58212023,2.49886648 2.49886648,1.58212023 3.666985,0.957403611 C4.83510352,0.33268699 5.9937614,0 9.18896456,0 L41.7038355,0 Z M41.4816924,2.1504 L9.4111076,2.1504 C6.54823835,2.15652603 5.49667047,2.46108964 4.43660292,3.02801997 C3.3658276,3.60067688 2.52547688,4.4410276 1.95281997,5.51180292 C1.38016308,6.58257822 1.0752,7.64468128 1.0752,10.5736176 L1.0752,96.077959 C1.08132603,98.9408283 1.38588964,99.9923964 1.95281997,101.052464 C2.52547688,102.123239 3.3658276,102.96359 4.43660292,103.536247 C5.50737822,104.108903 6.56948128,104.413867 9.49841751,104.413867 L9.49841751,104.413867 L41.3943824,104.413867 C44.3233187,104.413867 45.3854218,104.108903 46.4561971,103.536247 C47.5269724,102.96359 48.3673232,102.123239 48.93998,101.052464 C49.5126369,99.9816882 49.8176,98.9195854 49.8176,95.9906491 L49.8176,95.9906491 L49.8176,10.5736176 C49.8176,7.64468128 49.5126369,6.58257822 48.93998,5.51180292 C48.3673232,4.4410276 47.5269724,3.60067688 46.4561971,3.02801997 C45.3854218,2.45536308 44.3233187,2.1504 41.3943824,2.1504 L41.4816924,2.1504 Z" id="形状结合" fill="#505259" fill-rule="nonzero"></path>
                        <path d="M9.49841751,2.13304415 L41.3943824,2.13304415 C44.3233187,2.13304415 45.3854218,2.43811907 46.4561971,3.01098599 C47.5269724,3.58385292 48.3673232,4.42451185 48.93998,5.49567987 C49.5126369,6.56684789 49.8176,7.62934048 49.8176,10.559351 L49.8176,96.0077096 C49.8176,98.9377201 49.5126369,100.000212 48.93998,101.071381 C48.3673232,102.142548 47.5269724,102.983208 46.4561971,103.556075 C45.3854218,104.128941 44.3233187,104.434016 41.3943824,104.434016 L9.49841751,104.434016 C6.56948128,104.434016 5.50737822,104.128941 4.43660292,103.556075 C3.3658276,102.983208 2.52547688,102.142548 1.95281997,101.071381 C1.38016308,100.000212 1.0752,98.9377201 1.0752,96.0077096 L1.0752,10.559351 C1.0752,7.62934048 1.38016308,6.56684789 1.95281997,5.49567987 C2.52547688,4.42451185 3.3658276,3.58385292 4.43660292,3.01098599 C5.50737822,2.43811907 6.56948128,2.13304415 9.49841751,2.13304415 Z" id="矩形" fill-opacity="0.1" fill="#FFFFFF"></path>
                        <g id="编组-2备份" transform="translate(4.870572, 19.593614)" fill="#596080" fill-opacity="0.2">
                            <rect id="矩形" x="0.597930047" y="0" width="23.04" height="5.6508759" rx="1.92"></rect>
                            <rect id="矩形" x="0" y="32.8405565" width="41.1516562" height="16.486754" rx="2.51322469"></rect>
                            <rect id="矩形备份" x="0.787860768" y="10.9911693" width="39.7799343" height="2.74779233" rx="1.37389616"></rect>
                            <rect id="矩形备份-2" x="0.787860768" y="17.87182" width="39.7799343" height="2.74779233" rx="1.37389616"></rect>
                            <rect id="矩形备份-4" x="0.787860768" y="24.7524707" width="19.2041062" height="2.74779233" rx="1.37389616"></rect>
                        </g>
                    </g>
                </g>
            </g>
        </g>
    </g>
</svg>