<?xml version="1.0" encoding="UTF-8"?>
<svg width="24px" height="24px" viewBox="0 0 24 24" version="1.1" xmlns="http://www.w3.org/2000/svg" xmlns:xlink="http://www.w3.org/1999/xlink">
    <title>ic_public_voice</title>
    <defs>
        <path d="M14.75,8.25 C15.3022847,8.25 15.75,8.69771525 15.75,9.25 C15.75,13.1912355 12.8080258,16.4453362 9.00034448,16.9360348 L9,19 C9,19.5522847 8.55228475,20 8,20 C7.46445115,20 7.02723028,19.5790079 7.00122383,19.0499101 L7,19 L7.00066216,16.9361644 C3.19249276,16.4459097 0.25,13.1915829 0.25,9.25 C0.25,8.69771525 0.69771525,8.25 1.25,8.25 C1.80228475,8.25 2.25,8.69771525 2.25,9.25 C2.25,12.4256373 4.82436269,15 8,15 C11.1438809,15 13.6984526,12.4768671 13.7492297,9.34508676 L13.75,9.25 C13.75,8.69771525 14.1977153,8.25 14.75,8.25 Z M8,0 C10.209139,0 12,1.790861 12,4 L12,4 L12,9.25 C12,11.459139 10.209139,13.25 8,13.25 C5.790861,13.25 4,11.459139 4,9.25 L4,9.25 L4,4 C4,1.790861 5.790861,0 8,0 Z" id="path-1"></path>
    </defs>
    <g id="ic_public_voice" stroke="none" stroke-width="1" fill="none" fill-rule="evenodd">
        <g id="Public/ic_public_voice_filled" transform="translate(4.000000, 1.750000)">
            <mask id="mask-2" fill="white">
                <use xlink:href="#path-1"></use>
            </mask>
            <use id="形状结合" fill="#000000" fill-rule="nonzero" xlink:href="#path-1"></use>
        </g>
    </g>
</svg>