<svg viewBox="0 0 20 20" xmlns="http://www.w3.org/2000/svg" xmlns:xlink="http://www.w3.org/1999/xlink" width="20" height="20" fill="none" customFrame="#000000">
	<rect id="智能跟踪" width="20" height="20" x="0" y="0" />
	<path id="合并" d="M5.00024 0C5.34521 0 5.62524 0.279785 5.62524 0.625C5.62524 0.957764 5.36499 1.22998 5.03687 1.24902L3.3335 1.25C2.20239 1.25 1.28198 2.15137 1.25098 3.2749L1.25024 5C1.25024 5.34521 0.970459 5.625 0.625244 5.625C0.292236 5.625 0.0202637 5.36475 0.0012207 5.03662L0.000244141 3.33325C0.000244141 1.49243 1.49268 0 3.3335 0L5.00024 0ZM13.3335 0C15.1743 0 16.6667 1.49243 16.6667 3.33325L16.6667 5C16.6667 5.34521 16.387 5.625 16.0417 5.625C15.7087 5.625 15.4368 5.36475 15.4177 5.03662L15.4167 3.33325C15.4167 2.20215 14.5154 1.28174 13.3916 1.25073L11.6665 1.25C11.3384 1.23096 11.0417 0.957764 11.0417 0.625C11.0417 0.292236 11.302 0.0200195 11.6301 0.000976562L13.3335 0ZM9.4707 10.0964C9.12402 10.304 8.74487 10.4075 8.33325 10.4075C7.91211 10.4075 7.52637 10.304 7.17627 10.0964C6.82642 9.89233 6.55078 9.61523 6.34985 9.26514C6.14893 8.91528 6.04858 8.53271 6.04858 8.11792C6.04858 7.7063 6.14893 7.32568 6.34985 6.97559C6.55078 6.62573 6.82642 6.34863 7.17627 6.14429C7.52637 5.93701 7.91211 5.83325 8.33325 5.83325C8.74487 5.83325 9.12402 5.93701 9.4707 6.14429C9.81763 6.34863 10.093 6.62573 10.2971 6.97559C10.5046 7.32568 10.6084 7.7063 10.6084 8.11792C10.6084 8.53271 10.5046 8.91528 10.2971 9.26514C10.093 9.61523 9.81763 9.89233 9.4707 10.0964ZM0.625244 11.0417C0.958008 11.0417 1.23022 11.3018 1.24902 11.6299L1.25024 13.3333C1.25024 14.4644 2.15161 15.385 3.27515 15.4158L5.00024 15.4167C5.34521 15.4167 5.62524 15.6965 5.62524 16.0417C5.62524 16.3745 5.36499 16.6465 5.03687 16.6655L3.3335 16.6667C1.49268 16.6667 0.000244141 15.1743 0.000244141 13.3333L0 11.6667C0.019043 11.3386 0.292236 11.0417 0.625244 11.0417ZM16.0417 11.0417C16.3745 11.0417 16.6465 11.3018 16.6655 11.6299L16.6667 13.3333C16.6667 15.1743 15.1743 16.6667 13.3335 16.6667L11.6665 16.6667C11.3384 16.6477 11.0417 16.3745 11.0417 16.0417C11.0417 15.7087 11.302 15.4368 11.6301 15.4177L13.3335 15.4167C14.4644 15.4167 15.385 14.5154 15.4158 13.3916L15.4165 11.6667C15.4355 11.3386 15.7087 11.0417 16.0417 11.0417Z" fill="rgb(0,0,0)" fill-opacity="0.898039222" fill-rule="evenodd" />
</svg>