<svg viewBox="0 0 20 20" xmlns="http://www.w3.org/2000/svg" xmlns:xlink="http://www.w3.org/1999/xlink" width="20" height="20" fill="none">
	<rect id="居左" width="20" height="20" x="0" y="0" />
	<path id="合并" d="M6.66699 1.66675C7.01196 1.66675 7.29199 1.94653 7.29199 2.29175C7.29199 2.62451 7.03174 2.89673 6.70361 2.91577L5.00024 2.91675C3.86914 2.91675 2.94873 3.81812 2.91772 4.94165L2.91699 6.66675C2.91699 7.01196 2.63721 7.29175 2.29199 7.29175C1.95898 7.29175 1.68701 7.03149 1.66797 6.70337L1.66699 5C1.66699 3.15918 3.15942 1.66675 5.00024 1.66675L6.66699 1.66675ZM15.0002 1.66675C16.8411 1.66675 18.3335 3.15918 18.3335 5L18.3335 6.66675C18.3335 7.01196 18.0537 7.29175 17.7085 7.29175C17.3755 7.29175 17.1035 7.03149 17.0845 6.70337L17.0835 5C17.0835 3.8689 16.1821 2.94849 15.0583 2.91748L13.3333 2.91675C13.0051 2.89771 12.7085 2.62451 12.7085 2.29175C12.7085 1.95898 12.9688 1.68677 13.2969 1.66772L15.0002 1.66675ZM9.5 7C9.5 6.44775 9.05225 6 8.5 6L5.5 6C4.94775 6 4.5 6.44775 4.5 7L4.5 13C4.5 13.5522 4.94775 14 5.5 14L8.5 14C9.05225 14 9.5 13.5522 9.5 13L9.5 7ZM11.5 6C10.9478 6 10.5 6.44775 10.5 7L10.5 13C10.5 13.5522 10.9478 14 11.5 14C12.0522 14 12.5 13.5522 12.5 13L12.5 7C12.5 6.44775 12.0522 6 11.5 6ZM14.5 6C13.9478 6 13.5 6.44775 13.5 7L13.5 13C13.5 13.5522 13.9478 14 14.5 14C15.0522 14 15.5 13.5522 15.5 13L15.5 7C15.5 6.44775 15.0522 6 14.5 6ZM5.5 7L8.5 7L8.5 13L5.5 13L5.5 7ZM2.29199 12.7085C2.62476 12.7085 2.89697 12.9685 2.91577 13.2966L2.91699 15C2.91699 16.1311 3.81836 17.0518 4.94189 17.0825L6.66699 17.0835C7.01196 17.0835 7.29199 17.3633 7.29199 17.7085C7.29199 18.0413 7.03174 18.3132 6.70361 18.3323L5.00024 18.3335C3.15942 18.3335 1.66699 16.8411 1.66699 15L1.66675 13.3335C1.68579 13.0054 1.95898 12.7085 2.29199 12.7085ZM17.7085 12.7085C18.0413 12.7085 18.3132 12.9685 18.3323 13.2966L18.3335 15C18.3335 16.8411 16.8411 18.3335 15.0002 18.3335L13.3333 18.3335C13.0051 18.3145 12.7085 18.0413 12.7085 17.7085C12.7085 17.3755 12.9688 17.1035 13.2969 17.0845L15.0002 17.0835C16.1311 17.0835 17.0518 16.1821 17.0825 15.0583L17.0833 13.3335C17.1023 13.0054 17.3755 12.7085 17.7085 12.7085Z" fill="rgb(196,196,196)" fill-opacity="0" fill-rule="evenodd" />
	<path id="合并" d="M2.91772 4.94165C2.94873 3.81812 3.86914 2.91675 5.00024 2.91675L6.70361 2.91577C7.03174 2.89673 7.29199 2.62451 7.29199 2.29175C7.29199 1.94653 7.01196 1.66675 6.66699 1.66675L5.00024 1.66675C3.15942 1.66675 1.66699 3.15918 1.66699 5L1.66797 6.70337C1.68701 7.03149 1.95898 7.29175 2.29199 7.29175C2.63721 7.29175 2.91699 7.01196 2.91699 6.66675L2.91772 4.94165ZM10.5 7L10.5 13C10.5 13.5522 10.9478 14 11.5 14C12.0522 14 12.5 13.5522 12.5 13L12.5 7C12.5 6.44775 12.0522 6 11.5 6C10.9478 6 10.5 6.44775 10.5 7ZM8.5 6C9.05225 6 9.5 6.44775 9.5 7L9.5 13C9.5 13.5522 9.05225 14 8.5 14L5.5 14C4.94775 14 4.5 13.5522 4.5 13L4.5 7C4.5 6.44775 4.94775 6 5.5 6L8.5 6ZM13.5 13C13.5 13.5522 13.9478 14 14.5 14C15.0522 14 15.5 13.5522 15.5 13L15.5 7C15.5 6.44775 15.0522 6 14.5 6C13.9478 6 13.5 6.44775 13.5 7L13.5 13ZM18.3335 5C18.3335 3.15918 16.8411 1.66675 15.0002 1.66675L13.2969 1.66772C12.9688 1.68677 12.7085 1.95898 12.7085 2.29175C12.7085 2.62451 13.0051 2.89771 13.3333 2.91675L15.0583 2.91748C16.1821 2.94849 17.0835 3.8689 17.0835 5L17.0845 6.70337C17.1035 7.03149 17.3755 7.29175 17.7085 7.29175C18.0537 7.29175 18.3335 7.01196 18.3335 6.66675L18.3335 5ZM5.5 8L5.5 7L8.5 7L8.5 13L5.5 13L5.5 8ZM2.91577 13.2966C2.89697 12.9685 2.62476 12.7085 2.29199 12.7085C1.95898 12.7085 1.68579 13.0054 1.66675 13.3335L1.66699 15C1.66699 16.8411 3.15942 18.3335 5.00024 18.3335L6.70361 18.3323C7.03174 18.3132 7.29199 18.0413 7.29199 17.7085C7.29199 17.3633 7.01196 17.0835 6.66699 17.0835L4.94189 17.0825C3.81836 17.0518 2.91699 16.1311 2.91699 15L2.91577 13.2966ZM18.3323 13.2966C18.3132 12.9685 18.0413 12.7085 17.7085 12.7085C17.3755 12.7085 17.1023 13.0054 17.0833 13.3335L17.0825 15.0583C17.0518 16.1821 16.1311 17.0835 15.0002 17.0835L13.2969 17.0845C12.9688 17.1035 12.7085 17.3755 12.7085 17.7085C12.7085 18.0413 13.0051 18.3145 13.3333 18.3335L15.0002 18.3335C16.8411 18.3335 18.3335 16.8411 18.3335 15L18.3323 13.2966Z" fill="rgb(0,0,0)" fill-opacity="0.898039222" fill-rule="evenodd" />
</svg>