<svg viewBox="0 0 20 20" xmlns="http://www.w3.org/2000/svg" xmlns:xlink="http://www.w3.org/1999/xlink" width="20.000000" height="20.000000" fill="none">
	<rect id="居右" width="20.000000" height="20.000000" x="0.000000" y="0.000000" />
	<path id="合并" d="M7.29213 2.29199C7.29213 1.94681 7.01231 1.66699 6.66714 1.66699L5.00049 1.66699C3.15957 1.66699 1.6672 3.15938 1.6672 5.00033L1.66826 6.70372C1.68727 7.0318 1.95935 7.29199 2.29219 7.29199C2.63737 7.29199 2.91719 7.01217 2.91719 6.66699L2.91799 4.94201C2.94887 3.81838 3.86941 2.91699 5.00049 2.91699L6.70386 2.91593C7.03194 2.89692 7.29213 2.62484 7.29213 2.29199ZM18.3337 5.00033C18.3337 3.15938 16.8413 1.66699 15.0004 1.66699L13.297 1.66805C12.9689 1.68706 12.7087 1.95914 12.7087 2.29199C12.7087 2.62484 13.0054 2.89798 13.3335 2.91699L15.0587 2.91779C16.1823 2.94867 17.0837 3.86923 17.0837 5.00033L17.0847 6.70372C17.1037 7.0318 17.3758 7.29199 17.7087 7.29199C18.0538 7.29199 18.3337 7.01217 18.3337 6.66699L18.3337 5.00033ZM5.00033 6.45866L5.00033 13.5452C5.00033 13.8952 5.27532 14.1702 5.62533 14.1702C5.97533 14.1702 6.25033 13.8952 6.25033 13.5452L6.25033 6.45866C6.25033 6.10866 5.97533 5.83366 5.62533 5.83366C5.27532 5.83366 5.00033 6.10866 5.00033 6.45866ZM7.91699 13.5452L7.91699 6.45866C7.91699 6.10866 8.19199 5.83366 8.54199 5.83366C8.89199 5.83366 9.16699 6.10866 9.16699 6.45866L9.16699 13.5452C9.16699 13.8952 8.89199 14.1702 8.54199 14.1702C8.19199 14.1702 7.91699 13.8952 7.91699 13.5452ZM10.8337 6.66699C10.8337 6.20675 11.2068 5.83366 11.667 5.83366L14.167 5.83366C14.6272 5.83366 15.0003 6.20675 15.0003 6.66699L15.0003 13.3337C15.0003 13.7939 14.6272 14.167 14.167 14.167L11.667 14.167C11.2068 14.167 10.8337 13.7939 10.8337 13.3337L10.8337 6.66699ZM12.0837 7.08366L13.7503 7.08366L13.7503 12.917L12.0837 12.917L12.0837 7.08366ZM2.91612 13.2969C2.89711 12.9689 2.62504 12.7087 2.29219 12.7087C1.95935 12.7087 1.686 13.0056 1.66699 13.3337L1.6672 15.0003C1.6672 16.8413 3.15957 18.3337 5.00049 18.3337L6.70386 18.3326C7.03194 18.3136 7.29213 18.0415 7.29213 17.7087C7.29213 17.3635 7.01231 17.0837 6.66714 17.0837L4.94218 17.0829C3.81856 17.052 2.91719 16.1314 2.91719 15.0003L2.91612 13.2969ZM18.3326 13.2969C18.3136 12.9689 18.0415 12.7087 17.7087 12.7087C17.3758 12.7087 17.1025 13.0056 17.0835 13.3337L17.0829 15.0586C17.052 16.1823 16.1314 17.0837 15.0004 17.0837L13.297 17.0847C12.9689 17.1037 12.7087 17.3758 12.7087 17.7087C12.7087 18.0415 13.0054 18.3147 13.3335 18.3337L15.0004 18.3337C16.8413 18.3337 18.3337 16.8413 18.3337 15.0003L18.3326 13.2969Z" fill="rgb(0,0,0)" style="mix-blend-mode:normal" fill-opacity="0.898039222" fill-rule="evenodd" />
</svg>